# xmcd CD database file
#
# Track frame offsets:
#	150
#	13906
#	29451
#	64090
#	89319
#	100063
#	137327
#	159139
#	173841
#	191044
#
# Disc length: 3022 seconds
#
# Revision: 0
# Processed by: cddbd v1.5PL3 Copyright (c) Steve Scherf et al.
# Submitted via: CDex 1.51
#
DISCID=770bcc0a
DTITLE=He Xun-Tian -  Paramita
DYEAR=2002
DGENRE=New Age
TTITLE0=Cloud Bells([Prelude)
TTITLE1=Paramita
TTITLE2=The Untimate
TTITLE3=Song of the Enlightenment
TTITLE4=Song of Pipa
TTITLE5=Monks
TTITLE6=Heart Sultra
TTITLE7=Earth Drums
TTITLE8=Dance of the White Snake
TTITLE9=Spring Song
EXTD=YEAR: 2002
EXTT0=
EXTT1=
EXTT2=
EXTT3=
EXTT4=
EXTT5=
EXTT6=
EXTT7=
EXTT8=
EXTT9=
PLAYORDER=
